<svg width="200" height="200" version="1.1" xmlns="http://www.w3.org/2000/svg"><path fill="rgb(0,0,0)" stroke="rgb(0,0,0)" stroke-width="1" opacity="0" d="M 0 0 L 59 0.5 L 58.5 2 L 70 12.5 L 75 23.5 L 75 36.5 L 70 52.5 L 45 102.5 L 41 118.5 L 40 130.5 L 43 147.5 L 47 156.5 Q 53.8 168.7 64.5 177 L 77.5 185 L 83.5 187 L 89.5 187 L 90.5 185 Q 77.6 180.4 70 170.5 Q 64.7 163.3 65 150.5 L 70 137.5 L 92 109.5 Q 96.9 102.9 97 91.5 L 93 81.5 L 96.5 81 Q 103.7 82.8 107 88.5 L 113 102.5 L 114 118.5 L 112 127.5 L 114.5 132 Q 123.1 133.1 125 127.5 Q 128 123.5 127 115.5 L 126 111.5 L 128 112.5 L 135 127.5 L 136 140.5 L 132 157.5 Q 127 170 118 178.5 L 119.5 179 L 140 161.5 Q 150.5 147.5 156 128.5 L 159 114.5 L 160 99.5 L 159 98.5 L 158 81.5 L 154 67.5 Q 148.3 52.2 136.5 43 L 127.5 37 L 128 38.5 L 133 51.5 L 133 63.5 Q 130.2 72.2 123.5 77 Q 117.7 77.8 116 74.5 L 113 63.5 L 113 52.5 L 108 32.5 Q 102.6 18.9 92.5 10 Q 85.1 3.4 74 0.5 L 200 0 L 200 200 L 0 200 L 0 0 Z "></path><path fill="rgb(32,19,159)" stroke="rgb(32,19,159)" stroke-width="1" opacity="0.5568627450980392" d="M 59.5 0 L 63 0.5 L 58.5 2 L 59.5 0 Z "></path><path fill="rgb(32,19,159)" stroke="rgb(32,19,159)" stroke-width="1" opacity="0.5568627450980392" d="M 69.5 0 Q 76.1 -0.6 79 2.5 L 77.5 3 Q 75.2 0.3 69.5 1 L 69.5 0 Z "></path><path fill="rgb(32,19,159)" stroke="rgb(32,19,159)" stroke-width="1" opacity="0.5568627450980392" d="M 60.5 2 L 67 7.5 Q 72.8 13.2 75 22.5 L 74 22.5 L 70 12.5 L 60.5 2 Z "></path><path fill="rgb(32,19,159)" stroke="rgb(32,19,159)" stroke-width="1" opacity="0.5568627450980392" d="M 80.5 3 L 85 5.5 L 83.5 5 Q 79.7 4.8 80.5 3 Z "></path><path fill="rgb(32,19,159)" stroke="rgb(32,19,159)" stroke-width="1" opacity="0.5568627450980392" d="M 86.5 6 L 98 15.5 L 108 32.5 L 110 40.5 L 109 40.5 Q 104.7 21.8 92.5 11 Q 87.3 9.2 86.5 6 Z "></path><path fill="rgb(32,19,159)" stroke="rgb(32,19,159)" stroke-width="1" opacity="0.5568627450980392" d="M 75.5 24 L 76 35.5 L 75 35.5 L 75.5 24 Z "></path><path fill="rgb(32,19,159)" stroke="rgb(32,19,159)" stroke-width="1" opacity="0.5568627450980392" d="M 74.5 37 L 75 40.5 L 74 40.5 L 74.5 37 Z "></path><path fill="rgb(32,19,159)" stroke="rgb(32,19,159)" stroke-width="1" opacity="0.5568627450980392" d="M 127.5 37 Q 137.8 42.6 145 51.5 L 150 59.5 L 148 58.5 Q 144 49.5 136.5 44 L 130.5 40 L 129.5 42 L 127.5 37 Z "></path><path fill="rgb(32,19,159)" stroke="rgb(32,19,159)" stroke-width="1" opacity="0.5568627450980392" d="M 73.5 42 L 74 44.5 L 72.5 47 L 72 45.5 L 73.5 42 Z "></path><path fill="rgb(32,19,159)" stroke="rgb(32,19,159)" stroke-width="1" opacity="0.5568627450980392" d="M 110.5 42 L 111 45.5 L 110 45.5 L 110.5 42 Z "></path><path fill="rgb(32,19,159)" stroke="rgb(32,19,159)" stroke-width="1" opacity="0.5568627450980392" d="M 130.5 43 L 133 50.5 L 132 50.5 L 130.5 43 Z "></path><path fill="rgb(32,19,159)" stroke="rgb(32,19,159)" stroke-width="1" opacity="0.5568627450980392" d="M 111.5 47 L 112 50.5 L 111 50.5 L 111.5 47 Z "></path><path fill="rgb(32,19,159)" stroke="rgb(32,19,159)" stroke-width="1" opacity="0.5568627450980392" d="M 71.5 48 L 72 49.5 L 58.5 76 L 59 74.5 L 71.5 48 Z "></path><path fill="rgb(32,19,159)" stroke="rgb(32,19,159)" stroke-width="1" opacity="0.5568627450980392" d="M 112.5 52 L 113 59.5 L 112 59.5 L 112.5 52 Z "></path><path fill="rgb(32,19,159)" stroke="rgb(32,19,159)" stroke-width="1" opacity="0.5568627450980392" d="M 133.5 52 L 134 62.5 L 133 62.5 L 133.5 52 Z "></path><path fill="rgb(32,19,159)" stroke="rgb(32,19,159)" stroke-width="1" opacity="0.5568627450980392" d="M 113.5 64 L 114 68.5 L 113 68.5 L 113.5 64 Z "></path><path fill="rgb(32,19,159)" stroke="rgb(32,19,159)" stroke-width="1" opacity="0.5568627450980392" d="M 132.5 64 L 133 65.5 L 131.5 68 L 131 66.5 L 132.5 64 Z "></path><path fill="rgb(32,19,159)" stroke="rgb(32,19,159)" stroke-width="1" opacity="0.5568627450980392" d="M 152.5 65 L 154 68.5 L 153 68.5 L 152.5 65 Z "></path><path fill="rgb(32,19,159)" stroke="rgb(32,19,159)" stroke-width="1" opacity="0.5568627450980392" d="M 130.5 69 L 130 70.5 L 124.5 77 L 129 71.5 L 130.5 69 Z "></path><path fill="rgb(32,19,159)" stroke="rgb(32,19,159)" stroke-width="1" opacity="0.5568627450980392" d="M 114.5 70 L 117.5 76 L 123 77.5 L 119.5 78 L 115 74.5 L 114.5 70 Z "></path><path fill="rgb(32,19,159)" stroke="rgb(32,19,159)" stroke-width="1" opacity="0.5568627450980392" d="M 154.5 70 L 156 75.5 L 155 75.5 L 154.5 70 Z "></path><path fill="rgb(32,19,159)" stroke="rgb(32,19,159)" stroke-width="1" opacity="0.5568627450980392" d="M 57.5 77 L 57 78.5 L 49.5 94 L 49 92.5 L 57.5 77 Z "></path><path fill="rgb(32,19,159)" stroke="rgb(32,19,159)" stroke-width="1" opacity="0.5568627450980392" d="M 156.5 77 L 157 79.5 L 156 79.5 L 156.5 77 Z "></path><path fill="rgb(32,19,159)" stroke="rgb(32,19,159)" stroke-width="1" opacity="0.5568627450980392" d="M 91.5 80 Q 103.9 80.1 108 88.5 L 109 90.5 L 107 89.5 L 101.5 83 L 93.5 81 L 94 82.5 L 96 89.5 L 95 89.5 Q 94.3 82.9 91.5 80 Z "></path><path fill="rgb(32,19,159)" stroke="rgb(32,19,159)" stroke-width="1" opacity="0.5568627450980392" d="M 157.5 81 L 158 85.5 L 157 85.5 L 157.5 81 Z "></path><path fill="rgb(32,19,159)" stroke="rgb(32,19,159)" stroke-width="1" opacity="0.5568627450980392" d="M 158.5 88 L 159 94.5 L 158 94.5 L 158.5 88 Z "></path><path fill="rgb(32,19,159)" stroke="rgb(32,19,159)" stroke-width="1" opacity="0.5568627450980392" d="M 96.5 91 L 97 96.5 L 96 96.5 L 96.5 91 Z "></path><path fill="rgb(32,19,159)" stroke="rgb(32,19,159)" stroke-width="1" opacity="0.5568627450980392" d="M 109.5 92 L 113 101.5 L 112 101.5 L 109.5 92 Z "></path><path fill="rgb(32,19,159)" stroke="rgb(32,19,159)" stroke-width="1" opacity="0.5568627450980392" d="M 48.5 95 L 49 96.5 L 47.5 99 L 47 97.5 L 48.5 95 Z "></path><path fill="rgb(32,19,159)" stroke="rgb(32,19,159)" stroke-width="1" opacity="0.5568627450980392" d="M 95.5 98 L 96 100.5 L 95 100.5 L 95.5 98 Z "></path><path fill="rgb(32,19,159)" stroke="rgb(32,19,159)" stroke-width="1" opacity="0.5568627450980392" d="M 159.5 99 L 160 103.5 L 159 103.5 L 159.5 99 Z "></path><path fill="rgb(32,19,159)" stroke="rgb(32,19,159)" stroke-width="1" opacity="0.5568627450980392" d="M 46.5 100 L 47 101.5 L 44.5 108 L 44 105.5 L 46.5 100 Z "></path><path fill="rgb(32,19,159)" stroke="rgb(32,19,159)" stroke-width="1" opacity="0.5568627450980392" d="M 94.5 102 L 95 103.5 L 90 112.5 L 70 137.5 L 65.5 150 L 65 146.5 L 69 137.5 L 89 112.5 L 94.5 102 Z "></path><path fill="rgb(32,19,159)" stroke="rgb(32,19,159)" stroke-width="1" opacity="0.5568627450980392" d="M 113.5 103 L 114 106.5 L 113 106.5 L 113.5 103 Z "></path><path fill="rgb(32,19,159)" stroke="rgb(32,19,159)" stroke-width="1" opacity="0.5568627450980392" d="M 114.5 108 L 115 117.5 L 114 117.5 L 114.5 108 Z "></path><path fill="rgb(32,19,159)" stroke="rgb(32,19,159)" stroke-width="1" opacity="0.5568627450980392" d="M 43.5 109 L 44 111.5 L 43 111.5 L 43.5 109 Z "></path><path fill="rgb(32,19,159)" stroke="rgb(32,19,159)" stroke-width="1" opacity="0.5568627450980392" d="M 125.5 109 Q 132.8 115.2 135 126.5 L 134 126.5 Q 132.7 116.3 126.5 111 L 125.5 114 L 125.5 109 Z "></path><path fill="rgb(32,19,159)" stroke="rgb(32,19,159)" stroke-width="1" opacity="0.5568627450980392" d="M 158.5 109 L 159 114.5 L 158 114.5 L 158.5 109 Z "></path><path fill="rgb(32,19,159)" stroke="rgb(32,19,159)" stroke-width="1" opacity="0.5568627450980392" d="M 42.5 113 L 43 116.5 L 42 116.5 L 42.5 113 Z "></path><path fill="rgb(32,19,159)" stroke="rgb(32,19,159)" stroke-width="1" opacity="0.5568627450980392" d="M 126.5 115 L 127 122.5 L 126 122.5 L 126.5 115 Z "></path><path fill="rgb(32,19,159)" stroke="rgb(32,19,159)" stroke-width="1" opacity="0.5568627450980392" d="M 157.5 117 L 158 120.5 L 157 120.5 L 157.5 117 Z "></path><path fill="rgb(32,19,159)" stroke="rgb(32,19,159)" stroke-width="1" opacity="0.5568627450980392" d="M 41.5 118 L 42 123.5 L 41 123.5 L 41.5 118 Z "></path><path fill="rgb(32,19,159)" stroke="rgb(32,19,159)" stroke-width="1" opacity="0.5568627450980392" d="M 113.5 119 L 114 122.5 L 113 122.5 L 113.5 119 Z "></path><path fill="rgb(32,19,159)" stroke="rgb(32,19,159)" stroke-width="1" opacity="0.5568627450980392" d="M 156.5 122 L 157 124.5 L 156 124.5 L 156.5 122 Z "></path><path fill="rgb(32,19,159)" stroke="rgb(32,19,159)" stroke-width="1" opacity="0.5568627450980392" d="M 125.5 124 L 126 125.5 L 121.5 131 L 114.5 132 L 113 129.5 L 114 129.5 Q 113.4 132.3 119.5 131 L 124 127.5 L 125.5 124 Z "></path><path fill="rgb(32,19,159)" stroke="rgb(32,19,159)" stroke-width="1" opacity="0.5568627450980392" d="M 112.5 125 L 113 127.5 L 112 127.5 L 112.5 125 Z "></path><path fill="rgb(32,19,159)" stroke="rgb(32,19,159)" stroke-width="1" opacity="0.5568627450980392" d="M 155.5 126 L 156 128.5 L 155 128.5 L 155.5 126 Z "></path><path fill="rgb(32,19,159)" stroke="rgb(32,19,159)" stroke-width="1" opacity="0.5568627450980392" d="M 40.5 128 L 41 130.5 L 40 130.5 L 40.5 128 Z "></path><path fill="rgb(32,19,159)" stroke="rgb(32,19,159)" stroke-width="1" opacity="0.5568627450980392" d="M 135.5 128 L 136 132.5 L 135 132.5 L 135.5 128 Z "></path><path fill="rgb(32,19,159)" stroke="rgb(32,19,159)" stroke-width="1" opacity="0.5568627450980392" d="M 41.5 135 L 42 139.5 L 41 139.5 L 41.5 135 Z "></path><path fill="rgb(32,19,159)" stroke="rgb(32,19,159)" stroke-width="1" opacity="0.5568627450980392" d="M 152.5 136 L 153 137.5 L 151.5 140 L 151 138.5 L 152.5 136 Z "></path><path fill="rgb(32,19,159)" stroke="rgb(32,19,159)" stroke-width="1" opacity="0.5568627450980392" d="M 42.5 141 L 43 143.5 L 42 143.5 L 42.5 141 Z "></path><path fill="rgb(32,19,159)" stroke="rgb(32,19,159)" stroke-width="1" opacity="0.5568627450980392" d="M 135.5 141 L 136 146.5 L 135 146.5 L 135.5 141 Z "></path><path fill="rgb(32,19,159)" stroke="rgb(32,19,159)" stroke-width="1" opacity="0.5568627450980392" d="M 150.5 141 L 151 142.5 Q 144.3 159.3 131.5 170 L 118.5 179 L 122 174.5 L 126.5 168 L 126 169.5 L 123 174.5 L 126.5 172 L 139 161.5 L 150.5 141 Z "></path><path fill="rgb(32,19,159)" stroke="rgb(32,19,159)" stroke-width="1" opacity="0.5568627450980392" d="M 43.5 145 L 45 149.5 L 44 149.5 L 43.5 145 Z "></path><path fill="rgb(32,19,159)" stroke="rgb(32,19,159)" stroke-width="1" opacity="0.5568627450980392" d="M 134.5 148 L 135 150.5 L 134 150.5 L 134.5 148 Z "></path><path fill="rgb(32,19,159)" stroke="rgb(32,19,159)" stroke-width="1" opacity="0.5568627450980392" d="M 45.5 151 Q 52.1 166.4 64.5 176 L 79 184.5 L 77.5 185 Q 62.6 177.9 53 165.5 L 47 156.5 L 45.5 151 Z "></path><path fill="rgb(32,19,159)" stroke="rgb(32,19,159)" stroke-width="1" opacity="0.5568627450980392" d="M 64.5 151 L 65 155.5 L 64 155.5 L 64.5 151 Z "></path><path fill="rgb(32,19,159)" stroke="rgb(32,19,159)" stroke-width="1" opacity="0.5568627450980392" d="M 65.5 158 Q 67.7 171.8 77.5 178 L 83 181.5 L 81.5 181 Q 73.3 177.7 69 170.5 L 65 161.5 L 65.5 158 Z "></path><path fill="rgb(32,19,159)" stroke="rgb(32,19,159)" stroke-width="1" opacity="0.5568627450980392" d="M 131.5 158 L 132 159.5 L 127.5 167 L 128 165.5 L 131.5 158 Z "></path><path fill="rgb(32,19,159)" stroke="rgb(32,19,159)" stroke-width="1" opacity="0.5568627450980392" d="M 84.5 182 L 91 185.5 Q 89.5 188.5 83.5 187 L 80 185.5 L 82.5 185 Q 83.8 187.3 88.5 186 L 88.5 185 Q 84.5 184.5 84.5 182 Z "></path><path fill="rgb(32,20,159)" stroke="rgb(32,20,159)" stroke-width="1" opacity="0.996078431372549" d="M 63.5 0 L 66 0.5 L 63.5 1 L 63.5 0 Z "></path><path fill="rgb(32,20,159)" stroke="rgb(32,20,159)" stroke-width="1" opacity="0.996078431372549" d="M 61.5 2 L 63.5 5 L 61.5 2 Z "></path><path fill="rgb(32,20,159)" stroke="rgb(32,20,159)" stroke-width="1" opacity="0.996078431372549" d="M 67.5 8 L 69.5 11 L 67.5 8 Z "></path><path fill="rgb(32,20,159)" stroke="rgb(32,20,159)" stroke-width="1" opacity="0.996078431372549" d="M 93.5 12 L 94.5 14 L 93.5 12 Z "></path><path fill="rgb(32,20,159)" stroke="rgb(32,20,159)" stroke-width="1" opacity="0.996078431372549" d="M 98.5 18 L 99.5 20 L 98.5 18 Z "></path><path fill="rgb(32,20,159)" stroke="rgb(32,20,159)" stroke-width="1" opacity="0.996078431372549" d="M 138.5 46 L 139.5 48 L 138.5 46 Z "></path><path fill="rgb(32,20,159)" stroke="rgb(32,20,159)" stroke-width="1" opacity="0.996078431372549" d="M 141.5 49 L 142.5 51 L 141.5 49 Z "></path><path fill="rgb(32,20,159)" stroke="rgb(32,20,159)" stroke-width="1" opacity="0.996078431372549" d="M 129.5 72 L 126.5 76 L 129.5 72 Z "></path><path fill="rgb(32,20,159)" stroke="rgb(32,20,159)" stroke-width="1" opacity="0.996078431372549" d="M 103.5 83 L 104.5 85 L 103.5 83 Z "></path><path fill="rgb(32,20,159)" stroke="rgb(32,20,159)" stroke-width="1" opacity="0.996078431372549" d="M 158.5 95 L 159 98.5 L 158 98.5 L 158.5 95 Z "></path><path fill="rgb(32,20,159)" stroke="rgb(32,20,159)" stroke-width="1" opacity="0.996078431372549" d="M 90.5 109 L 89.5 111 L 90.5 109 Z "></path><path fill="rgb(32,20,159)" stroke="rgb(32,20,159)" stroke-width="1" opacity="0.996078431372549" d="M 129.5 113 L 130.5 115 L 129.5 113 Z "></path><path fill="rgb(32,20,159)" stroke="rgb(32,20,159)" stroke-width="1" opacity="0.996078431372549" d="M 85.5 116 L 83.5 119 L 85.5 116 Z "></path><path fill="rgb(32,20,159)" stroke="rgb(32,20,159)" stroke-width="1" opacity="0.996078431372549" d="M 80.5 122 L 79.5 124 L 80.5 122 Z "></path><path fill="rgb(32,20,159)" stroke="rgb(32,20,159)" stroke-width="1" opacity="0.996078431372549" d="M 76.5 127 L 74.5 130 L 76.5 127 Z "></path><path fill="rgb(32,20,159)" stroke="rgb(32,20,159)" stroke-width="1" opacity="0.996078431372549" d="M 123.5 127 L 121.5 130 L 123.5 127 Z "></path><path fill="rgb(32,20,159)" stroke="rgb(32,20,159)" stroke-width="1" opacity="0.996078431372549" d="M 41.5 131 L 42 133.5 L 41 133.5 L 41.5 131 Z "></path><path fill="rgb(32,20,159)" stroke="rgb(32,20,159)" stroke-width="1" opacity="0.996078431372549" d="M 136.5 135 L 137 137.5 L 136 137.5 L 136.5 135 Z "></path><path fill="rgb(32,20,159)" stroke="rgb(32,20,159)" stroke-width="1" opacity="0.996078431372549" d="M 136.5 163 L 134.5 166 L 136.5 163 Z "></path><path fill="rgb(32,20,159)" stroke="rgb(32,20,159)" stroke-width="1" opacity="0.996078431372549" d="M 55.5 166 L 57.5 169 L 55.5 166 Z "></path><path fill="rgb(32,20,159)" stroke="rgb(32,20,159)" stroke-width="1" opacity="0.996078431372549" d="M 59.5 170 L 64.5 176 L 59.5 170 Z "></path><path fill="rgb(32,20,159)" stroke="rgb(32,20,159)" stroke-width="1" opacity="0.996078431372549" d="M 128.5 170 L 127.5 172 L 128.5 170 Z "></path><path fill="rgb(32,20,159)" stroke="rgb(32,20,159)" stroke-width="1" opacity="0.996078431372549" d="M 70.5 172 L 72.5 175 L 70.5 172 Z "></path><path fill="rgb(32,20,159)" stroke="rgb(32,20,159)" stroke-width="1" opacity="0.996078431372549" d="M 124.5 173 L 123.5 175 L 124.5 173 Z "></path><path fill="rgb(32,20,159)" stroke="rgb(32,20,159)" stroke-width="1" opacity="0.996078431372549" d="M 74.5 176 L 75.5 178 L 74.5 176 Z "></path><path fill="rgb(32,20,159)" stroke="rgb(32,20,159)" stroke-width="1" opacity="0.996078431372549" d="M 67.5 177 L 68.5 179 L 67.5 177 Z "></path><path fill="rgb(33,20,160)" stroke="rgb(33,20,160)" stroke-width="1" opacity="1" d="M 66.5 0 L 76.5 2 L 93 11 L 94.5 14 L 97 15.5 L 102 22.5 L 109 38.5 L 112 53.5 L 113 70.5 L 118.5 78 L 122.5 78 L 130 72.5 Q 135.7 66.2 134 52.5 L 130 40.5 L 132.5 42 L 138 45 L 139.5 48 Q 141.8 47.3 141 49.5 L 144 51 L 145 55 Q 148 53.8 147 57.5 L 152 64.5 L 157 80.5 L 157 82.5 L 158 86.5 L 158 88.5 L 159 105.5 L 159 107.5 L 158 116.5 L 152 137.5 L 142 158 Q 139.3 156.9 140 159.5 L 137.5 163 L 134 165.5 L 132.5 168 L 123.5 174 L 127 169.5 L 127 167.5 L 132 160.5 L 136 147.5 L 137 139.5 L 137 137.5 L 134 120.5 L 128 110 Q 125.3 111.1 126 108.5 L 125 108.5 L 126 122.5 Q 124.6 128.6 119.5 131 Q 115 132 114 129.5 L 113 125.5 Q 116.3 118.3 115 106.5 L 113 102.5 L 112 95.5 L 107 86 Q 104.3 87.1 105 84.5 L 100.5 81 L 90.5 80 L 90.5 81 L 93 82.5 L 96 91.5 L 96 96.5 L 89 113 Q 86.3 111.9 87 114.5 L 74 129.5 L 73 133 Q 70.3 131.9 71 134.5 L 66 142.5 L 64 149.5 L 64 155.5 L 65 157.5 L 65 159.5 L 66 165.5 L 72.5 175 Q 74.8 174.3 74 176.5 L 88 185.5 L 83.5 186 L 71.5 181 L 58 170 L 55.5 166 Q 53.3 166.8 54 164.5 L 47 154.5 L 41 134.5 L 42 131.5 L 41 128.5 L 42 125.5 L 42 118.5 L 46 102.5 L 73 47.5 L 76 37.5 L 76 23.5 Q 72.1 9.4 61.5 2 L 59 1.5 L 66.5 0 Z "></path></svg>